PathFileType	4	(X/Y/Z)	T1_P2_NoVision_Movement_0_0-734.trc
DataRate	CameraRate	NumFrames	NumMarkers	Units	OrigDataRate	OrigDataStartFrame	OrigNumFrames
60	60	6	27	m	60	91	734
Frame#	Time	RHip			RKnee			RAnkle			RBigToe			RSmallToe			RHeel			LHip			LKnee			LAnkle			LBigToe			LSmallToe			LHeel			Neck			Head			Nose			RShoulder			RElbow			RWrist			RThumb			RIndex			RPinky			LShoulder			LElbow			LWrist			LThumb			LIndex			LPinky		
		X1	Y1	Z1	X2	Y2	Z2	X3	Y3	Z3	X4	Y4	Z4	X5	Y5	Z5	X6	Y6	Z6	X7	Y7	Z7	X8	Y8	Z8	X9	Y9	Z9	X10	Y10	Z10	X11	Y11	Z11	X12	Y12	Z12	X13	Y13	Z13	X14	Y14	Z14	X15	Y15	Z15	X16	Y16	Z16	X17	Y17	Z17	X18	Y18	Z18	X19	Y19	Z19	X20	Y20	Z20	X21	Y21	Z21	X22	Y22	Z22	X23	Y23	Z23	X24	Y24	Z24	X25	Y25	Z25	X26	Y26	Z26	X27	Y27	Z27
92	1.5333333333333334	456.6555157343471	3650.4599730517907	550.6948446500783	858.5016678855495	3694.8605468859155	571.6504745058047	1228.9698017309124	3700.7917336603346	613.0704802392327	1328.185895023183	3627.278883732438	611.7273092527557	1305.6318936434586	3648.3917360691917	558.7695821092573	1269.8615895772045	3707.8589747526607	633.1561243789876	461.54024619243086	3529.992440071929	741.7158629933764	870.2346367910313	3561.793245948017	753.3475089612846	1214.2858241795007	3593.396302030983	737.8624789991658	1317.9865104380535	3548.397705043282	692.126187983463	1273.5691638997962	3471.4475003725956	720.5976510581003	1264.1136889046343	3616.6904272755273	730.4608362692347	-108.28692894680927	3541.4022710928725	642.9224332933804	-357.13971871188005	3453.5637041562063	579.8143342319063	-220.97556929990745	3448.2888146546597	598.9954560346115	-31.497828434079512	3650.154595988215	515.606818548496	186.23188064148778	3730.863881994742	443.5218156932894	223.3291579866017	3513.185266420166	399.2016965212409	193.34698656162482	3424.520779649928	454.4220603418387	200.15903686503003	3392.6545971859823	437.70943792955813	281.68028083617315	3443.2247372194797	470.1689489271423	-31.910260997005512	3556.41158987824	831.1498560445261	226.10056676304012	3473.3265842693695	857.5911323719664	471.5012660441434	3432.86037278941	829.7046738914846	574.9507117092196	3430.568405518214	804.5164636730273	593.8905589063398	3416.1892818451474	820.1818924680927	598.5680822166829	3439.1082815284763	863.7411151871626
93	1.55	452.21282588198153	3649.1276861284455	549.8959252060749	858.5896867129526	3694.816596189744	571.6530363889417	1229.1824747527264	3700.9577505481675	613.2236580967392	1328.8091037559702	3625.850362016958	617.0031635387351	1312.479674253351	3652.877662564509	560.1020634844626	1270.1369982662452	3707.799940227375	633.2159738806359	465.1531269637606	3525.9760579340027	739.369658826139	870.239756468376	3561.930909551732	753.3183917153268	1214.3582765529554	3593.4460396267805	738.009536118748	1331.0972059624137	3564.221751462224	710.3666069044968	1273.669346218737	3471.485726506021	720.8328722335325	1264.1280510050165	3616.9098244200004	730.6592418304231	-113.04703451223045	3539.7489765033015	642.3093998456634	-357.12938260067284	3453.6333600975963	579.9399279889427	-221.02721395384614	3448.437225113168	599.051356251176	-30.758582586862374	3667.004100712295	529.0041176957723	181.44055593627738	3736.411274502543	446.371473190841	227.92188463469557	3518.5370671519368	395.41220710273177	198.44358025709315	3427.175650243727	454.89421922658295	209.38275970785807	3392.2013922792585	436.68086619708595	285.7543633888974	3439.5954352133544	468.4080190431478	-31.914161704292724	3556.2508611884023	831.0598628351624	225.94009016686817	3473.311015166648	857.6055378793018	471.5033046511745	3433.010273682774	829.955702568351	574.9113211136535	3430.5549143811227	804.6149452264691	594.0192662905553	3416.2670602942826	820.2906947910751	602.4849483063007	3452.7952158628896	877.0392873592996
94	1.5666666666666667	452.2088452125165	3649.1783341578634	550.0589073689267	858.5057646527448	3695.091257913733	571.7965531887897	1228.945551694811	3700.6501294338946	613.1012073655322	1321.7827191712324	3621.428913220042	615.888541775432	1305.6706911996448	3648.3742469176973	558.8609353332565	1270.050377969665	3707.7118275335233	633.2755528017631	461.4320367501677	3530.0632680128547	741.8086031547346	870.1259234071887	3561.7125233648494	753.3389439371086	1219.8921381036005	3594.656873097718	739.314376827693	1331.1006543074786	3564.2511639572363	710.3695563050767	1273.8455785835251	3471.717881478614	721.0129721797298	1264.1728556913095	3616.6703095528487	730.5925813306512	-108.47670920513704	3535.6498350393704	640.1847786561593	-357.0378283368859	3453.5533460562297	579.859626271057	-221.00974874948542	3462.480232416638	611.2282531467417	-34.908988078635524	3671.098322240409	531.0433315863609	181.00599556078572	3737.624060500555	447.3428685682077	228.10646269212037	3516.4224928000235	400.23497137193175	198.3159675640258	3427.1816881390523	455.0135089451599	209.4869876968749	3392.2263189320347	436.6733256329013	293.3127649840516	3437.2487892615077	467.2355247744035	-31.970608591358815	3556.1428564748	830.8535479106434	225.87004709054	3473.0353709599144	857.5000574656782	471.46388258527105	3432.9835781104034	830.1012325054133	568.7484516703696	3426.988269486051	803.5127073855901	598.4656943398116	3417.1786995509383	821.4915510295236	602.4986986742341	3453.4734033826753	877.7450516339061
95	1.5833333333333333	456.6246580634393	3650.633537566249	551.1415663528651	865.5835862676155	3719.9044664613793	589.7391752796192	1228.9362537514414	3700.9064949805615	613.14679446628	1319.21031783551	3626.513634543479	618.8185753990736	1305.533346378178	3648.3848146312052	559.0016132719268	1269.9570220014723	3708.047824486068	633.2878720555656	461.30066254563866	3530.079473362104	741.8072457327808	860.5997599810506	3562.46989025387	754.6337767347376	1213.4363694026745	3590.5717912183154	738.0752242145769	1323.508191421087	3568.8106422156193	708.5872525254433	1273.6471332098793	3471.5879451591536	720.793638813832	1264.04889932279	3616.6336256609443	730.5046440013793	-113.05289143301779	3542.7886094341297	638.414231367876	-357.0524050340311	3453.7422587000465	579.9999692483905	-221.08824913005938	3462.6345477330165	611.3536710214033	-35.00473724004665	3671.2459238328556	531.1417195728897	176.87736250160307	3736.3065190518073	446.97167584807846	228.32756680044352	3516.4585278130776	400.45606945521274	202.70809947251826	3428.4377087403523	455.83507498735185	209.88551876973588	3391.903772657968	436.895566303709	297.04055731663874	3433.148808075482	465.3003658885049	-32.01810583067423	3556.2442963325875	830.779431854232	225.6626446192883	3472.8557007800305	857.4525188485163	471.5434687882946	3433.0178635801026	830.3315369531908	569.2418655998669	3425.1203124150065	807.415447872879	598.6616917222478	3416.6019072762624	821.6143136806332	606.374479429878	3465.646237943206	896.5025889861995
96	1.6	456.4297571451039	3643.4395629390556	547.3400983260649	858.5776303092257	3694.63006651792	571.7452393152781	1228.9181040942	3700.7898243374693	613.1159849603393	1328.5374076622072	3625.524583588941	617.1392808623042	1305.6032823289383	3648.4135010731106	558.8618769596094	1269.876738326253	3707.3820801117577	633.0988413568489	461.36932045128674	3529.8484326758794	741.7704963686999	863.9243171755554	3557.210164419171	751.7357765628883	1207.6550107644248	3589.2821996256794	736.8041834537103	1325.0087770440825	3560.687111052075	709.6540985098803	1273.6100038343911	3471.704265892357	720.8388927669964	1261.390554190456	3621.2257419301163	732.9991017543279	-112.93598132990613	3539.857387558228	642.3372847120316	-357.04139332684775	3453.8610944567736	579.9598014228837	-221.10531101188408	3462.621575221547	611.3118577565891	-34.93988362506943	3668.5884819029397	534.8352165995786	176.80978334566677	3736.060138716139	446.71183749628915	228.4906015372064	3516.833461672833	400.4436070535186	203.45043065988733	3427.80636287839	454.88066435520017	210.03899402794562	3391.775981409477	436.5141972739791	300.94287043555073	3429.2714892244367	462.5309788079085	-32.010919759445144	3556.128051197576	830.7489297349958	225.82351339320647	3472.9606879950275	857.5695701961897	471.63884734559934	3433.2553132125377	830.6962445416026	575.7144714270963	3428.3465114801825	809.1135109131534	594.5104999992467	3415.4160266442263	820.9920847914578	606.287297235023	3465.514429719633	896.5043886350112
97	1.6166666666666667	460.97289829317083	3645.153445315975	548.4208075770522	864.5803996078158	3711.5796054776833	585.1116075923521	1229.1492673462647	3700.479475103311	613.1035561002724	1321.2314762341673	3604.7131856570372	611.9073510056487	1312.3708514900654	3652.339920486868	559.7349431043838	1272.6545579607398	3702.1679323950043	630.4590227640726	461.33857333730157	3529.7244263867033	741.6840804217053	869.7324291271568	3561.288724877609	752.8025688621335	1207.812062933364	3589.8522729251176	737.4431894347579	1324.945109608669	3560.4772447283503	709.6398245324342	1273.7115138210347	3472.0483084717735	721.0700858160961	1257.7453985733594	3615.3615537333144	729.3663598073122	-112.88766938870921	3539.777971489583	642.3015851360198	-357.1013722909205	3453.592712111934	579.9702696615905	-220.91914481356525	3462.5862227071607	611.2842688689228	-34.958819459993606	3668.2051904407185	534.7106038976636	178.6499786587673	3752.4577336071948	458.80495337968614	239.84060448786153	3531.591416923365	411.3086013684704	208.36339628009537	3423.197955739369	452.2540668565413	210.53422616621938	3391.9708778533295	436.51371388613006	303.43151889711277	3443.854310094154	474.71989768251666	-32.024081148943374	3556.1921171044105	830.5345219827047	221.78175168646806	3477.4529821404913	860.3529824490297	471.6466396154729	3433.3011241137724	830.8004358403438	572.4138153759957	3432.361588478288	811.5263148185211	594.4704505766341	3415.3476025982213	820.9576373874869	602.1784013263342	3444.5921493460005	888.802919560885
